<?xml version="1.0" encoding="UTF-8"?>
<svg xmlns="http://www.w3.org/2000/svg" xmlns:xlink="http://www.w3.org/1999/xlink" width="167px" height="250px" viewBox="0 0 167 250" version="1.1">
<g id="surface1">
<path style=" stroke:none;fill-rule:nonzero;fill:rgb(0%,0%,0%);fill-opacity:1;" d="M 81.378906 42.121094 C 74.1875 46.46875 63.308594 49.429688 51.371094 50.277344 C 45.8125 50.667969 39.644531 50.308594 33.007812 49.21875 C 29.128906 48.582031 26.078125 47.800781 22.472656 46.484375 L 20.875 45.914062 L 20.875 101.449219 C 20.875 140.789062 20.925781 157.40625 21.054688 158.445312 C 22.113281 167.121094 27.59375 173.746094 38 178.9375 C 43.039062 181.445312 48.617188 183.480469 59.117188 186.621094 C 72.410156 190.609375 78.085938 192.953125 82.40625 196.222656 C 83.449219 197.019531 83.53125 197.054688 83.84375 196.664062 C 84.25 196.175781 87.347656 194.238281 89.304688 193.230469 C 93.480469 191.113281 98.519531 189.339844 108.941406 186.277344 C 112.074219 185.367188 118.726562 183.152344 121.027344 182.273438 C 130.078125 178.808594 135.636719 175.488281 139.75 171.125 C 142.667969 168.015625 144.296875 164.890625 145.40625 160.320312 C 145.699219 159.148438 145.71875 156.492188 145.75 102.683594 L 145.800781 46.257812 L 144.65625 46.726562 C 140.726562 48.324219 134.089844 49.789062 128.429688 50.324219 C 124.90625 50.652344 115.824219 50.601562 112.773438 50.242188 C 105.058594 49.316406 97.296875 47.445312 91.457031 45.101562 C 89.257812 44.222656 85.980469 42.527344 83.828125 41.144531 C 83.433594 40.886719 83.371094 40.917969 81.378906 42.121094 Z M 85.261719 43.328125 C 89.925781 46.011719 95.355469 48.046875 101.929688 49.542969 L 103.804688 49.984375 L 103.789062 61.246094 C 103.773438 67.449219 103.804688 74.542969 103.851562 77.019531 L 103.917969 81.542969 L 144.332031 81.542969 L 144.332031 64.875 C 144.332031 53.921875 144.378906 48.160156 144.496094 48.09375 C 144.609375 48.03125 144.65625 66.308594 144.65625 102.832031 C 144.65625 155.792969 144.640625 157.714844 144.347656 159.359375 C 142.992188 166.863281 138.589844 172.28125 130.011719 177 C 124.484375 180.046875 118.921875 182.097656 104.128906 186.523438 C 94.71875 189.355469 89.0625 191.667969 85.050781 194.351562 L 83.351562 195.492188 L 82.570312 194.921875 C 80.628906 193.554688 77.304688 191.796875 74.105469 190.460938 C 70.371094 188.898438 68.871094 188.394531 57.242188 184.878906 C 44.863281 181.121094 38.796875 178.582031 33.1875 174.820312 C 27.234375 170.832031 23.613281 165.851562 22.390625 159.929688 C 22.128906 158.707031 22.113281 154.363281 22.066406 103.109375 L 22.015625 47.589844 L 23.925781 48.226562 C 27.921875 49.527344 32.339844 50.4375 38.082031 51.121094 C 40.445312 51.414062 41.976562 51.480469 45.910156 51.496094 C 48.601562 51.511719 51.683594 51.464844 52.757812 51.398438 C 54.03125 51.335938 54.488281 51.335938 54.0625 51.433594 C 53.703125 51.511719 51.664062 51.675781 49.546875 51.773438 C 40.773438 52.230469 30.203125 50.976562 24.007812 48.730469 C 23.160156 48.421875 22.441406 48.175781 22.40625 48.175781 C 22.375 48.175781 22.34375 55.679688 22.34375 64.859375 L 22.34375 81.542969 L 42.515625 81.511719 L 62.707031 81.460938 L 62.675781 65.722656 L 62.640625 50 L 63.898438 49.722656 C 68.511719 48.730469 71.789062 47.785156 74.855469 46.566406 C 76.992188 45.703125 80.792969 43.863281 82.195312 43 C 82.78125 42.644531 83.320312 42.332031 83.386719 42.332031 C 83.449219 42.316406 84.300781 42.773438 85.261719 43.328125 Z M 129.277344 51.53125 C 129.230469 51.578125 129.082031 51.59375 128.96875 51.546875 C 128.839844 51.496094 128.886719 51.449219 129.066406 51.449219 C 129.246094 51.433594 129.34375 51.480469 129.277344 51.53125 Z M 128.5625 51.707031 C 128.445312 51.742188 128.21875 51.742188 128.070312 51.707031 C 127.910156 51.660156 128.007812 51.628906 128.265625 51.628906 C 128.542969 51.628906 128.660156 51.660156 128.5625 51.707031 Z M 128.5625 51.707031 "/>
<path style=" stroke:none;fill-rule:nonzero;fill:rgb(0%,0%,0%);fill-opacity:1;" d="M 74.203125 55.730469 L 74.203125 56.445312 L 74.953125 56.558594 C 75.425781 56.625 75.882812 56.835938 76.210938 57.128906 L 76.730469 57.585938 L 76.78125 65.21875 C 76.828125 74.203125 76.894531 73.761719 75.230469 74.285156 C 74.253906 74.59375 74.238281 74.609375 74.171875 75.242188 C 74.140625 75.632812 74.1875 75.910156 74.300781 75.960938 C 74.578125 76.058594 91.441406 75.945312 91.554688 75.847656 C 91.605469 75.796875 91.816406 74.65625 92.046875 73.324219 C 92.339844 71.515625 92.386719 70.847656 92.257812 70.769531 C 92.144531 70.703125 91.769531 70.636719 91.410156 70.636719 C 90.789062 70.636719 90.742188 70.671875 90.449219 71.402344 C 90.023438 72.394531 89.175781 73.339844 88.425781 73.601562 C 88.015625 73.746094 86.910156 73.8125 85.050781 73.8125 C 81.21875 73.8125 81.429688 73.992188 81.363281 70.769531 C 81.332031 69.402344 81.316406 67.757812 81.347656 67.105469 L 81.414062 65.949219 L 83.710938 66.03125 C 85.980469 66.113281 86.042969 66.113281 86.453125 66.550781 C 86.695312 66.8125 86.925781 67.285156 86.988281 67.675781 L 87.089844 68.359375 L 88.71875 68.359375 L 88.71875 61.6875 L 87.902344 61.6875 C 87.152344 61.6875 87.089844 61.71875 87.007812 62.125 C 86.8125 63.054688 86.453125 63.621094 85.996094 63.753906 C 85.75 63.835938 84.609375 63.882812 83.46875 63.882812 L 81.394531 63.882812 L 81.332031 60.496094 L 81.265625 57.128906 L 84.511719 57.128906 C 88.066406 57.128906 88.589844 57.226562 89.125 58.039062 C 89.289062 58.300781 89.519531 58.804688 89.617188 59.164062 C 89.8125 59.796875 89.84375 59.8125 90.578125 59.863281 L 91.328125 59.910156 L 91.328125 55.011719 L 74.203125 55.011719 Z M 74.203125 55.730469 "/>
<path style=" stroke:none;fill-rule:nonzero;fill:rgb(0%,0%,0%);fill-opacity:1;" d="M 81.460938 84.03125 C 80.53125 84.40625 80.222656 84.667969 79.734375 85.417969 C 78.785156 86.914062 79.226562 89.0625 80.695312 90.085938 C 81.347656 90.527344 81.527344 90.574219 82.734375 90.574219 C 84.25 90.574219 85.113281 90.234375 85.734375 89.402344 C 86.972656 87.710938 86.4375 85.058594 84.707031 84.226562 C 83.941406 83.855469 82.144531 83.757812 81.460938 84.03125 Z M 83.859375 85.074219 C 84.707031 85.839844 85 87.726562 84.429688 88.816406 C 84.136719 89.386719 83.417969 89.84375 82.847656 89.84375 C 82.277344 89.84375 81.558594 89.386719 81.265625 88.816406 C 81.070312 88.476562 80.988281 87.921875 80.972656 87.125 C 80.972656 85.855469 81.25 85.253906 82.046875 84.832031 C 82.539062 84.570312 83.433594 84.683594 83.859375 85.074219 Z M 83.859375 85.074219 "/>
<path style=" stroke:none;fill-rule:nonzero;fill:rgb(0%,0%,0%);fill-opacity:1;" d="M 76.292969 84.097656 C 75.769531 84.128906 75.347656 84.195312 75.347656 84.246094 C 75.347656 84.292969 75.492188 84.457031 75.671875 84.601562 C 75.949219 84.847656 76.015625 85.203125 76.144531 87.484375 C 76.308594 90.007812 76.308594 90.105469 75.980469 90.332031 C 75.800781 90.476562 75.703125 90.625 75.753906 90.671875 C 75.851562 90.769531 78.3125 90.65625 78.429688 90.558594 C 78.476562 90.527344 78.378906 90.398438 78.214844 90.28125 C 77.972656 90.105469 77.890625 89.664062 77.777344 87.320312 C 77.628906 84.894531 77.644531 84.554688 77.875 84.441406 C 78.214844 84.246094 78.019531 83.984375 77.578125 84.015625 C 77.382812 84.03125 76.796875 84.066406 76.292969 84.097656 Z M 76.292969 84.097656 "/>
<path style=" stroke:none;fill-rule:nonzero;fill:rgb(0%,0%,0%);fill-opacity:1;" d="M 90.675781 84.375 C 90.675781 84.503906 90.773438 84.636719 90.902344 84.683594 C 91.082031 84.75 91.117188 85.089844 91.066406 86.214844 C 90.902344 89.648438 90.824219 90.332031 90.578125 90.332031 C 90.449219 90.332031 90.351562 90.429688 90.351562 90.558594 C 90.351562 90.722656 90.691406 90.804688 91.621094 90.867188 C 92.992188 90.949219 93.1875 90.902344 92.746094 90.59375 C 92.535156 90.429688 92.46875 90.136719 92.46875 89.371094 L 92.46875 88.378906 L 93.335938 88.363281 C 95.09375 88.347656 95.945312 87.695312 95.945312 86.34375 C 95.945312 84.910156 95.046875 84.421875 92.109375 84.246094 C 90.96875 84.179688 90.675781 84.210938 90.675781 84.375 Z M 94.101562 85.5625 C 94.753906 86.394531 94.164062 87.628906 93.171875 87.53125 C 92.878906 87.5 92.632812 87.433594 92.632812 87.351562 C 92.632812 87.289062 92.632812 86.765625 92.632812 86.179688 L 92.632812 85.125 L 93.1875 85.125 C 93.613281 85.125 93.839844 85.238281 94.101562 85.5625 Z M 94.101562 85.5625 "/>
<path style=" stroke:none;fill-rule:nonzero;fill:rgb(0%,0%,0%);fill-opacity:1;" d="M 69.425781 84.636719 C 68.300781 84.78125 68.136719 84.894531 68.609375 85.253906 C 68.9375 85.496094 69 85.808594 69.214844 88.132812 C 69.441406 90.429688 69.441406 90.753906 69.230469 90.917969 C 68.707031 91.308594 69 91.40625 70.257812 91.257812 C 70.941406 91.179688 71.546875 91.082031 71.578125 91.046875 C 71.628906 91 71.496094 90.867188 71.300781 90.722656 C 70.992188 90.511719 70.941406 90.316406 70.941406 89.421875 C 70.941406 88.054688 71.253906 88.035156 72.246094 89.371094 C 72.65625 89.910156 73.078125 90.476562 73.175781 90.625 C 73.339844 90.804688 73.617188 90.867188 74.316406 90.835938 C 74.839844 90.820312 75.28125 90.769531 75.3125 90.738281 C 75.347656 90.707031 75.085938 90.398438 74.726562 90.039062 C 74.382812 89.695312 73.863281 89.0625 73.566406 88.640625 L 73.046875 87.875 L 73.535156 87.304688 C 74.300781 86.441406 74.15625 85.1875 73.210938 84.699219 C 72.71875 84.457031 71.074219 84.421875 69.425781 84.636719 Z M 72.148438 85.644531 C 72.296875 85.839844 72.410156 86.179688 72.410156 86.394531 C 72.410156 86.929688 71.707031 87.566406 71.105469 87.566406 L 70.617188 87.566406 L 70.617188 85.285156 L 71.253906 85.285156 C 71.742188 85.285156 71.96875 85.382812 72.148438 85.644531 Z M 72.148438 85.644531 "/>
<path style=" stroke:none;fill-rule:nonzero;fill:rgb(0%,0%,0%);fill-opacity:1;" d="M 65.511719 85.125 C 64.515625 85.300781 64.417969 85.398438 64.859375 85.742188 C 65.136719 85.96875 65.285156 86.472656 65.640625 88.605469 C 66.066406 91.046875 66.082031 91.210938 65.804688 91.40625 C 65.347656 91.746094 65.640625 91.925781 66.410156 91.78125 C 66.800781 91.699219 67.386719 91.601562 67.730469 91.550781 L 68.367188 91.453125 L 67.972656 91.097656 C 67.648438 90.789062 67.535156 90.363281 67.207031 88.230469 C 66.898438 86.277344 66.867188 85.660156 66.996094 85.433594 C 67.109375 85.269531 67.191406 85.089844 67.191406 85.042969 C 67.191406 84.929688 66.472656 84.976562 65.511719 85.125 Z M 65.511719 85.125 "/>
<path style=" stroke:none;fill-rule:nonzero;fill:rgb(0%,0%,0%);fill-opacity:1;" d="M 98.179688 85.96875 C 97.101562 87.988281 95.535156 90.558594 95.273438 90.753906 C 94.898438 91.03125 95.015625 91.097656 96.058594 91.226562 C 96.773438 91.324219 96.921875 91.292969 96.757812 91.144531 C 96.613281 90.984375 96.628906 90.789062 96.890625 90.300781 L 97.214844 89.664062 L 98.144531 89.777344 C 99.679688 89.972656 99.859375 90.054688 100.019531 90.65625 C 100.136719 91.113281 100.101562 91.257812 99.875 91.421875 C 99.464844 91.714844 99.628906 91.796875 100.949219 91.976562 C 102.222656 92.15625 102.417969 92.105469 102.074219 91.699219 C 101.945312 91.550781 101.441406 90.007812 100.949219 88.230469 L 100.035156 85.042969 L 99.382812 84.992188 C 98.714844 84.945312 98.714844 84.945312 98.179688 85.96875 Z M 99.269531 88.996094 C 98.796875 89.078125 97.851562 88.882812 97.851562 88.6875 C 97.851562 88.605469 98.078125 88.070312 98.355469 87.515625 L 98.878906 86.507812 L 99.222656 87.726562 C 99.5625 88.914062 99.5625 88.949219 99.269531 88.996094 Z M 99.269531 88.996094 "/>
<path style=" stroke:none;fill-rule:nonzero;fill:rgb(0%,0%,0%);fill-opacity:1;" d="M 61.746094 85.789062 C 60.929688 85.984375 60.863281 86.050781 61.222656 86.3125 C 61.5 86.523438 62.023438 88.328125 61.824219 88.460938 C 61.5 88.65625 59.3125 89.046875 59.199219 88.933594 C 59.136719 88.851562 58.988281 88.378906 58.890625 87.890625 C 58.710938 87.09375 58.726562 86.980469 58.988281 86.800781 C 59.542969 86.394531 59.003906 86.261719 57.8125 86.539062 C 56.476562 86.832031 56.214844 87.011719 56.769531 87.207031 C 57.128906 87.351562 57.210938 87.597656 57.699219 89.859375 C 58.285156 92.625 58.304688 92.886719 58.027344 92.96875 C 57.929688 93 57.878906 93.113281 57.945312 93.210938 C 58.027344 93.328125 58.402344 93.308594 59.152344 93.132812 C 60.472656 92.820312 60.503906 92.804688 60.144531 92.546875 C 59.835938 92.316406 59.28125 90.183594 59.492188 89.972656 C 59.738281 89.730469 62.039062 89.371094 62.167969 89.566406 C 62.21875 89.664062 62.363281 90.21875 62.476562 90.804688 C 62.625 91.601562 62.625 91.878906 62.496094 91.925781 C 62.121094 92.039062 62.28125 92.464844 62.675781 92.382812 C 62.871094 92.332031 63.457031 92.21875 63.980469 92.121094 C 64.988281 91.925781 65.105469 91.796875 64.550781 91.550781 C 64.238281 91.40625 64.125 91.03125 63.636719 88.703125 C 63.261719 86.914062 63.148438 86.003906 63.261719 85.96875 C 63.359375 85.9375 63.441406 85.839844 63.441406 85.757812 C 63.441406 85.578125 62.59375 85.59375 61.746094 85.789062 Z M 61.746094 85.789062 "/>
<path style=" stroke:none;fill-rule:nonzero;fill:rgb(0%,0%,0%);fill-opacity:1;" d="M 103.722656 85.808594 C 103.722656 85.9375 103.804688 86.117188 103.902344 86.214844 C 104.03125 86.34375 103.984375 86.945312 103.722656 88.410156 C 103.234375 91.160156 103.070312 91.796875 102.808594 91.796875 C 102.679688 91.796875 102.582031 91.910156 102.582031 92.039062 C 102.582031 92.1875 102.808594 92.300781 103.199219 92.367188 C 103.527344 92.429688 104.425781 92.578125 105.175781 92.722656 C 107.082031 93.082031 107 93.097656 107.246094 92.382812 C 107.523438 91.601562 107.390625 91.339844 106.917969 91.78125 C 106.578125 92.105469 106.480469 92.121094 105.664062 91.941406 C 105.175781 91.84375 104.765625 91.730469 104.734375 91.714844 C 104.71875 91.699219 104.914062 90.558594 105.191406 89.191406 C 105.453125 87.839844 105.679688 86.703125 105.679688 86.667969 C 105.679688 86.652344 105.828125 86.589844 106.007812 86.539062 C 106.609375 86.375 106.332031 86.148438 105.320312 85.953125 C 104.75 85.839844 104.164062 85.726562 104.015625 85.675781 C 103.835938 85.628906 103.722656 85.675781 103.722656 85.808594 Z M 103.722656 85.808594 "/>
<path style=" stroke:none;fill-rule:nonzero;fill:rgb(0%,0%,0%);fill-opacity:1;" d="M 54.144531 87.402344 C 52.855469 87.53125 51.960938 87.90625 51.226562 88.589844 C 50.507812 89.289062 50.230469 89.957031 50.230469 91.113281 C 50.230469 92.917969 51.714844 94.5625 53.34375 94.5625 C 55.125 94.5625 56.917969 93.683594 56.917969 92.804688 C 56.917969 92.105469 56.753906 92.074219 56.085938 92.691406 C 55.351562 93.359375 54.535156 93.601562 53.738281 93.425781 C 52.988281 93.261719 52.628906 92.917969 52.203125 92.023438 C 51.699219 90.984375 51.730469 89.695312 52.269531 89.046875 C 52.988281 88.214844 54.585938 87.972656 55.125 88.621094 C 55.238281 88.753906 55.382812 88.867188 55.449219 88.867188 C 55.597656 88.867188 55.464844 87.53125 55.300781 87.402344 C 55.253906 87.351562 54.730469 87.351562 54.144531 87.402344 Z M 54.144531 87.402344 "/>
<path style=" stroke:none;fill-rule:nonzero;fill:rgb(0%,0%,0%);fill-opacity:1;" d="M 110.636719 87.402344 C 109.789062 87.597656 109.039062 88.152344 108.617188 88.898438 C 108.289062 89.46875 108.207031 89.828125 108.207031 90.835938 C 108.207031 92.429688 108.648438 93.179688 109.984375 93.832031 C 111.207031 94.433594 112.789062 94.382812 113.785156 93.71875 C 115.058594 92.871094 115.675781 90.738281 115.074219 89.289062 C 114.78125 88.574219 113.769531 87.777344 112.789062 87.484375 C 111.925781 87.222656 111.4375 87.207031 110.636719 87.402344 Z M 112.824219 88.542969 C 113.492188 88.949219 113.71875 89.519531 113.636719 90.671875 C 113.476562 92.96875 111.664062 94.15625 110.34375 92.820312 C 109.496094 91.976562 109.660156 89.746094 110.671875 88.738281 C 111.289062 88.117188 112.007812 88.054688 112.824219 88.542969 Z M 112.824219 88.542969 "/>
<path style=" stroke:none;fill-rule:nonzero;fill:rgb(0%,0%,0%);fill-opacity:1;" d="M 117.097656 88.964844 C 117.097656 89.03125 117.210938 89.207031 117.339844 89.371094 C 117.585938 89.617188 117.503906 89.859375 116.558594 92.136719 C 115.710938 94.207031 115.464844 94.660156 115.171875 94.695312 C 114.585938 94.773438 114.761719 95.148438 115.480469 95.359375 C 115.855469 95.476562 116.265625 95.605469 116.394531 95.652344 C 116.589844 95.734375 116.621094 95.652344 116.542969 95.261719 C 116.460938 94.90625 116.589844 94.402344 117.113281 93.210938 C 117.488281 92.351562 117.847656 91.632812 117.894531 91.632812 C 117.960938 91.632812 118.023438 92.5625 118.042969 93.699219 C 118.089844 96.0625 118.140625 96.355469 118.53125 96.355469 C 118.675781 96.371094 119.558594 95.574219 120.472656 94.613281 L 122.152344 92.855469 L 121.921875 93.585938 C 121.238281 95.945312 120.945312 96.664062 120.652344 96.726562 C 120.097656 96.875 120.359375 97.101562 121.515625 97.476562 C 122.691406 97.851562 123 97.835938 122.65625 97.429688 C 122.460938 97.199219 122.558594 96.777344 123.894531 92.234375 C 123.945312 92.089844 124.042969 91.941406 124.125 91.941406 C 124.207031 91.925781 124.351562 91.910156 124.46875 91.894531 C 124.566406 91.894531 124.679688 91.796875 124.710938 91.714844 C 124.746094 91.585938 123 90.902344 122.625 90.902344 C 122.574219 90.902344 121.890625 91.648438 121.089844 92.578125 C 120.308594 93.488281 119.605469 94.207031 119.558594 94.140625 C 119.507812 94.089844 119.429688 93.050781 119.378906 91.84375 L 119.296875 89.648438 L 118.5625 89.355469 C 117.453125 88.933594 117.097656 88.835938 117.097656 88.964844 Z M 117.097656 88.964844 "/>
<path style=" stroke:none;fill-rule:nonzero;fill:rgb(0%,0%,0%);fill-opacity:1;" d="M 47.261719 89.5 C 46.480469 89.761719 46.203125 90.167969 46.789062 90.167969 C 47.019531 90.167969 47.214844 90.527344 47.6875 91.828125 C 48.011719 92.757812 48.273438 93.554688 48.273438 93.621094 C 48.273438 93.71875 44.960938 91.746094 44.035156 91.097656 C 43.738281 90.902344 43.578125 90.917969 42.730469 91.210938 C 42.191406 91.40625 41.75 91.601562 41.75 91.667969 C 41.75 91.730469 41.945312 91.878906 42.191406 91.992188 C 42.550781 92.171875 42.777344 92.609375 43.511719 94.5625 C 44.230469 96.515625 44.359375 96.972656 44.195312 97.234375 C 43.855469 97.785156 44.261719 97.867188 45.273438 97.429688 C 46.167969 97.054688 46.203125 96.988281 45.515625 96.808594 C 45.339844 96.761719 44.035156 93.488281 44.035156 93.050781 C 44.035156 92.902344 44.246094 93.015625 47.179688 94.839844 C 48.925781 95.929688 49.152344 96.027344 49.628906 95.898438 C 49.9375 95.800781 50.132812 95.652344 50.101562 95.523438 C 50.066406 95.394531 49.609375 94.109375 49.074219 92.644531 C 48.324219 90.574219 48.144531 89.925781 48.273438 89.679688 C 48.582031 89.09375 48.453125 89.078125 47.261719 89.5 Z M 47.261719 89.5 "/>
<path style=" stroke:none;fill-rule:nonzero;fill:rgb(0%,0%,0%);fill-opacity:1;" d="M 125.902344 95.394531 C 124.613281 96.648438 123.40625 97.65625 123.261719 97.65625 C 122.722656 97.65625 122.96875 98.078125 123.699219 98.4375 C 124.597656 98.875 124.664062 98.875 124.546875 98.484375 C 124.5 98.273438 124.628906 98.015625 124.941406 97.722656 L 125.398438 97.28125 L 126.097656 97.558594 C 127.746094 98.210938 127.695312 98.160156 127.695312 98.910156 C 127.695312 99.398438 127.613281 99.640625 127.417969 99.753906 C 127.078125 99.933594 127.042969 99.917969 128.234375 100.472656 C 129.179688 100.925781 129.6875 100.925781 129.328125 100.503906 C 129.179688 100.324219 129.179688 99.429688 129.328125 96.988281 C 129.425781 95.183594 129.472656 93.683594 129.441406 93.652344 C 129.410156 93.621094 129.132812 93.488281 128.820312 93.359375 L 128.265625 93.132812 Z M 127.925781 96.0625 C 127.875 96.710938 127.792969 97.265625 127.777344 97.296875 C 127.761719 97.3125 127.371094 97.167969 126.914062 96.957031 L 126.082031 96.566406 L 126.929688 95.734375 C 127.386719 95.261719 127.828125 94.890625 127.910156 94.890625 C 127.988281 94.890625 127.988281 95.425781 127.925781 96.0625 Z M 127.925781 96.0625 "/>
<path style=" stroke:none;fill-rule:nonzero;fill:rgb(0%,0%,0%);fill-opacity:1;" d="M 37.332031 93.601562 C 36.742188 93.894531 36.726562 93.929688 36.859375 94.515625 C 36.921875 94.855469 37.070312 96.371094 37.183594 97.867188 C 37.332031 99.902344 37.347656 100.652344 37.199219 100.796875 C 36.972656 101.023438 36.972656 101.238281 37.199219 101.238281 C 37.296875 101.238281 37.707031 101.042969 38.097656 100.8125 C 38.683594 100.472656 38.78125 100.359375 38.601562 100.195312 C 38.472656 100.097656 38.324219 99.722656 38.261719 99.363281 L 38.179688 98.714844 L 40.625 97.605469 L 41.113281 98.078125 C 41.425781 98.371094 41.554688 98.632812 41.488281 98.828125 C 41.425781 99.070312 41.585938 99.023438 42.550781 98.582031 C 43.773438 98.03125 43.96875 97.753906 43.265625 97.589844 C 43.003906 97.542969 41.816406 96.628906 40.59375 95.589844 C 39.386719 94.53125 38.277344 93.585938 38.144531 93.472656 C 37.964844 93.328125 37.785156 93.359375 37.332031 93.601562 Z M 39.222656 96.320312 C 39.53125 96.597656 39.792969 96.875 39.792969 96.921875 C 39.792969 96.957031 39.433594 97.183594 38.992188 97.410156 L 38.179688 97.820312 L 38.082031 97.039062 C 38.03125 96.613281 37.949219 96.027344 37.902344 95.71875 L 37.820312 95.164062 L 38.226562 95.492188 C 38.457031 95.671875 38.894531 96.042969 39.222656 96.320312 Z M 39.222656 96.320312 "/>
<path style=" stroke:none;fill-rule:nonzero;fill:rgb(0%,0%,0%);fill-opacity:1;" d="M 132.851562 95.492188 C 132.800781 95.539062 132.800781 95.75 132.851562 95.964844 C 132.980469 96.453125 130.355469 100.894531 129.945312 100.910156 C 129.410156 100.910156 129.652344 101.203125 130.632812 101.707031 C 131.757812 102.292969 131.824219 102.3125 131.707031 101.921875 C 131.609375 101.609375 132.539062 99.917969 132.882812 99.804688 C 133.160156 99.722656 133.207031 99.933594 133.324219 101.742188 L 133.4375 103.289062 L 134.15625 103.726562 C 134.5625 103.972656 134.90625 104.167969 134.9375 104.167969 C 134.96875 104.167969 134.96875 103.824219 134.9375 103.386719 C 134.90625 102.960938 134.855469 102.132812 134.808594 101.511719 L 134.742188 100.421875 L 135.230469 100.421875 C 136.257812 100.421875 136.976562 99.722656 136.992188 98.699219 C 136.992188 98.144531 136.894531 97.917969 136.488281 97.527344 C 136.191406 97.25 135.671875 96.875 135.296875 96.695312 C 134.921875 96.515625 134.253906 96.140625 133.796875 95.882812 C 133.324219 95.605469 132.914062 95.441406 132.851562 95.492188 Z M 135.101562 97.574219 C 135.621094 98.0625 135.636719 98.484375 135.164062 99.023438 C 134.660156 99.578125 134.074219 99.640625 133.503906 99.203125 C 133.226562 98.992188 133.226562 98.941406 133.730469 98.078125 C 134.007812 97.574219 134.332031 97.167969 134.449219 97.167969 C 134.5625 97.167969 134.855469 97.347656 135.101562 97.574219 Z M 135.101562 97.574219 "/>
<path style=" stroke:none;fill-rule:nonzero;fill:rgb(0%,0%,0%);fill-opacity:1;" d="M 32.421875 96.191406 C 30.609375 96.746094 29.46875 98.40625 30.074219 99.59375 C 30.5625 100.519531 30.953125 100.652344 32.863281 100.519531 C 34.542969 100.40625 34.558594 100.421875 34.820312 100.8125 C 35.03125 101.121094 35.046875 101.285156 34.917969 101.546875 C 34.460938 102.390625 33.367188 102.765625 32.585938 102.359375 C 32.03125 102.066406 31.882812 102.425781 32.308594 103.058594 C 32.519531 103.351562 32.699219 103.613281 32.699219 103.628906 C 32.699219 103.644531 33.171875 103.5 33.742188 103.320312 C 34.507812 103.074219 35 102.78125 35.601562 102.195312 C 36.402344 101.433594 36.417969 101.414062 36.335938 100.585938 C 36.269531 99.96875 36.140625 99.640625 35.796875 99.285156 C 35.175781 98.632812 34.460938 98.535156 33.089844 98.859375 C 31.882812 99.152344 31.425781 99.054688 31.230469 98.484375 C 30.953125 97.589844 32.0625 96.941406 33.398438 97.234375 C 33.988281 97.378906 34.019531 97.296875 33.613281 96.597656 C 33.300781 96.0625 33.074219 95.980469 32.421875 96.191406 Z M 32.421875 96.191406 "/>
<path style=" stroke:none;fill-rule:nonzero;fill:rgb(0%,0%,0%);fill-opacity:1;" d="M 71.511719 96.84375 L 70.699219 96.921875 L 71.953125 97.527344 C 73.78125 98.386719 74.921875 99.1875 76.535156 100.75 C 78.25 102.375 80.011719 104.914062 80.464844 106.394531 C 80.582031 106.753906 80.546875 106.769531 79.636719 106.753906 L 78.6875 106.753906 L 77.792969 105.355469 C 74.757812 100.652344 69.082031 97.410156 64.417969 97.722656 C 63.652344 97.769531 62.851562 97.851562 62.625 97.882812 C 62.398438 97.933594 62.003906 98.015625 61.726562 98.078125 C 59.789062 98.453125 56.492188 100 54.550781 101.449219 C 51.78125 103.515625 49.511719 106.265625 47.949219 109.457031 C 46.21875 113.003906 45.515625 116.046875 45.386719 120.6875 C 45.320312 123.0625 45.371094 124.234375 45.566406 125.730469 C 47.441406 139.226562 56.933594 152.164062 69.800781 158.757812 C 75.835938 161.847656 82.113281 163.410156 88.492188 163.410156 L 91.574219 163.410156 L 90.675781 162.90625 C 86.058594 160.300781 83.058594 157.046875 81.039062 152.457031 C 80.335938 150.878906 79.519531 147.996094 79.339844 146.46875 L 79.242188 145.539062 L 70.078125 145.523438 C 64.371094 145.523438 60.570312 145.589844 60.015625 145.6875 C 59.527344 145.785156 58.792969 146.042969 58.402344 146.257812 C 57.699219 146.648438 57.667969 146.648438 57.40625 146.371094 C 57.257812 146.207031 57 145.703125 56.820312 145.261719 C 56.542969 144.53125 56.527344 144.140625 56.589844 141.570312 C 56.6875 138.28125 56.769531 138.054688 57.585938 138.738281 C 58.304688 139.339844 59.136719 139.746094 60.292969 140.039062 C 61.171875 140.265625 63.457031 140.300781 79.765625 140.300781 C 99.207031 140.300781 99.5625 140.28125 100.933594 139.582031 C 102.335938 138.851562 103.183594 137.320312 103.019531 135.789062 C 102.890625 134.585938 102.304688 133.722656 101.097656 133.023438 C 99.9375 132.324219 98.894531 132.160156 95.8125 132.160156 L 93.367188 132.160156 L 94.507812 131.394531 C 96.15625 130.304688 97.394531 129.183594 98.210938 128.058594 L 98.910156 127.082031 L 100.378906 127.164062 C 105.628906 127.472656 109.953125 131.949219 109.527344 136.667969 C 109.316406 139.03125 108.484375 140.886719 106.984375 142.332031 C 105.484375 143.816406 104.015625 144.660156 101.945312 145.214844 C 100.769531 145.554688 100.25 145.574219 91.066406 145.636719 L 81.445312 145.703125 L 81.558594 146.550781 C 81.96875 149.609375 83.777344 153.597656 85.898438 156.167969 C 88.148438 158.886719 91.851562 161.230469 95.355469 162.125 C 96.890625 162.5 99.5 162.53125 101.488281 162.191406 C 107.816406 161.082031 113.636719 156.65625 116.65625 150.617188 C 119.492188 144.9375 119.949219 136.492188 117.8125 129.117188 C 116.363281 124.089844 113.359375 118.441406 109.773438 113.980469 C 103.039062 105.566406 93.234375 99.496094 83.175781 97.507812 C 79.375 96.761719 74.644531 96.484375 71.511719 96.84375 Z M 89.777344 108.773438 C 94.785156 110.15625 98.046875 113.183594 99.140625 117.480469 C 100.234375 121.746094 98.617188 126.367188 94.996094 129.34375 C 94.066406 130.109375 92.160156 131.167969 90.839844 131.65625 C 88.523438 132.503906 88.246094 132.535156 78.820312 132.601562 L 69.964844 132.664062 L 69.964844 138.800781 L 67.140625 138.914062 C 65.59375 138.980469 64.175781 139.011719 64.011719 138.964844 C 63.683594 138.914062 63.683594 138.703125 63.636719 130.242188 L 63.605469 121.582031 L 69.964844 121.582031 L 69.964844 127.605469 L 77.757812 127.605469 C 84.917969 127.605469 85.667969 127.570312 86.792969 127.292969 C 88.667969 126.804688 89.5 126.351562 90.773438 125.097656 C 92.144531 123.714844 92.632812 122.671875 92.761719 120.734375 C 92.960938 117.675781 91.410156 115.121094 88.523438 113.703125 C 86.484375 112.695312 85.898438 112.628906 77.957031 112.628906 C 74.058594 112.628906 70.699219 112.679688 70.484375 112.726562 C 70.257812 112.792969 70.078125 113.019531 69.996094 113.347656 L 69.867188 113.851562 L 63.683594 113.851562 L 63.605469 111.980469 C 63.554688 110.953125 63.457031 110.007812 63.375 109.894531 C 63.292969 109.75 63.34375 109.421875 63.523438 109.03125 L 63.816406 108.414062 L 65.625 108.347656 C 66.621094 108.316406 72.101562 108.300781 77.792969 108.316406 L 88.148438 108.332031 Z M 89.664062 116.160156 C 90.625 117.121094 91.117188 118.113281 91.261719 119.367188 L 91.378906 120.3125 L 77.042969 120.261719 C 63.210938 120.199219 62.691406 120.214844 62.136719 120.507812 C 60.488281 121.402344 59.851562 122.3125 59.851562 123.777344 C 59.851562 125.457031 60.601562 126.53125 62.300781 127.3125 L 63.113281 127.683594 L 63.113281 132.488281 L 62.65625 132.488281 C 61.824219 132.488281 59.691406 131.851562 58.679688 131.316406 C 54.617188 129.167969 52.953125 124.382812 54.894531 120.457031 C 56.003906 118.195312 58.285156 116.4375 61.027344 115.722656 C 62.152344 115.429688 62.96875 115.414062 75.558594 115.414062 L 88.898438 115.398438 Z M 106.007812 118.78125 C 106.007812 120.410156 105.957031 121.859375 105.90625 121.988281 C 105.777344 122.332031 105.453125 122.296875 105.09375 121.890625 C 104.441406 121.175781 103.496094 120.769531 102.207031 120.671875 L 100.949219 120.554688 L 100.949219 119.5625 C 100.949219 118.699219 100.707031 117.21875 100.378906 116.128906 C 100.28125 115.804688 100.332031 115.789062 103.152344 115.804688 L 106.039062 115.804688 Z M 81.460938 123.894531 C 81.332031 125.4375 81.296875 125.488281 80.808594 125.488281 C 80.417969 125.488281 80.402344 125.457031 80.402344 124.363281 C 80.402344 122.917969 80.484375 122.722656 81.085938 122.722656 L 81.558594 122.722656 Z M 80.972656 134.714844 C 80.921875 134.878906 80.761719 135.546875 80.644531 136.214844 C 80.515625 136.882812 80.367188 137.449219 80.320312 137.5 C 80.269531 137.546875 80.074219 137.515625 79.878906 137.417969 C 79.570312 137.289062 79.519531 137.15625 79.554688 136.296875 C 79.617188 134.554688 79.683594 134.441406 80.433594 134.441406 C 80.988281 134.441406 81.070312 134.488281 80.972656 134.714844 Z M 69.964844 148.324219 C 69.964844 149.070312 69.914062 149.722656 69.867188 149.773438 C 69.816406 149.820312 69.246094 149.722656 68.609375 149.542969 C 67.648438 149.265625 67.160156 149.21875 65.886719 149.316406 C 65.039062 149.363281 64.175781 149.460938 63.980469 149.511719 C 63.605469 149.609375 63.605469 149.59375 63.605469 148.289062 L 63.605469 146.972656 L 69.964844 146.972656 Z M 69.964844 148.324219 "/>
<path style=" stroke:none;fill-rule:nonzero;fill:rgb(0%,0%,0%);fill-opacity:1;" d="M 35.195312 157.976562 C 34.65625 158.25 34.25 158.984375 34.25 159.636719 C 34.25 159.929688 34.476562 160.433594 34.820312 160.90625 C 35.863281 162.351562 35.945312 162.566406 35.632812 163.019531 C 35.242188 163.605469 34.507812 163.542969 33.824219 162.859375 C 33.433594 162.46875 33.269531 162.15625 33.269531 161.800781 C 33.269531 161.132812 33.042969 161.164062 32.535156 161.898438 L 32.128906 162.5 L 32.746094 163.132812 C 33.5625 163.980469 34.394531 164.386719 35.324219 164.386719 C 36.238281 164.386719 36.9375 163.996094 37.265625 163.3125 C 37.722656 162.371094 37.558594 161.785156 36.546875 160.5625 C 35.828125 159.699219 35.730469 159.113281 36.222656 158.804688 C 36.839844 158.414062 38.164062 159.277344 38.164062 160.074219 C 38.164062 160.613281 38.390625 160.59375 38.832031 159.976562 L 39.171875 159.472656 L 38.636719 158.917969 C 37.574219 157.828125 36.15625 157.4375 35.195312 157.976562 Z M 35.195312 157.976562 "/>
<path style=" stroke:none;fill-rule:nonzero;fill:rgb(0%,0%,0%);fill-opacity:1;" d="M 129.636719 158.820312 C 129.082031 159.097656 128.578125 159.539062 128.265625 159.976562 C 127.84375 160.578125 127.777344 160.808594 127.777344 161.75 C 127.777344 162.644531 127.859375 162.972656 128.234375 163.621094 C 128.902344 164.761719 129.785156 165.28125 131.023438 165.28125 C 132.164062 165.265625 133.027344 164.890625 133.84375 164.03125 C 135.132812 162.679688 135.003906 160.628906 133.535156 159.226562 C 132.476562 158.21875 131.070312 158.074219 129.636719 158.820312 Z M 131.332031 159.570312 C 132.507812 160.058594 133.566406 161.847656 133.324219 162.9375 C 133.09375 163.933594 131.59375 164.484375 130.679688 163.914062 C 129 162.859375 128.578125 160.320312 129.980469 159.636719 C 130.664062 159.277344 130.664062 159.277344 131.332031 159.570312 Z M 131.332031 159.570312 "/>
<path style=" stroke:none;fill-rule:nonzero;fill:rgb(0%,0%,0%);fill-opacity:1;" d="M 41.488281 161.472656 C 41.066406 161.945312 37.199219 165.039062 37.003906 165.054688 C 36.921875 165.070312 36.792969 165.085938 36.710938 165.105469 C 36.304688 165.152344 36.417969 165.378906 37.085938 165.835938 C 37.949219 166.4375 38.195312 166.472656 38.082031 165.964844 C 38 165.691406 38.097656 165.511719 38.457031 165.25 L 38.945312 164.890625 L 40.019531 165.460938 C 40.96875 165.964844 41.097656 166.097656 41.097656 166.503906 C 41.097656 167.121094 40.949219 167.480469 40.671875 167.480469 C 40.152344 167.480469 40.511719 167.839844 41.570312 168.359375 C 42.710938 168.945312 43.003906 168.960938 42.695312 168.457031 C 42.550781 168.246094 42.582031 167.351562 42.828125 164.910156 L 43.136719 161.636719 L 42.695312 161.394531 C 42.125 161.050781 41.863281 161.066406 41.488281 161.472656 Z M 41.523438 163.523438 C 41.457031 163.964844 41.375 164.5 41.324219 164.730469 L 41.246094 165.167969 L 40.511719 164.761719 C 40.121094 164.535156 39.792969 164.324219 39.792969 164.257812 C 39.792969 164.128906 41.308594 162.777344 41.488281 162.761719 C 41.554688 162.761719 41.570312 163.101562 41.523438 163.523438 Z M 41.523438 163.523438 "/>
<path style=" stroke:none;fill-rule:nonzero;fill:rgb(0%,0%,0%);fill-opacity:1;" d="M 122.769531 162.824219 C 121.859375 163.3125 121.074219 163.769531 121.058594 163.851562 C 121.027344 163.914062 121.171875 164.0625 121.367188 164.144531 C 121.824219 164.339844 124.273438 168.976562 123.976562 169.074219 C 123.78125 169.140625 123.699219 169.597656 123.863281 169.597656 C 124.042969 169.597656 125.886719 168.621094 125.96875 168.472656 C 126.015625 168.390625 125.917969 168.292969 125.753906 168.246094 C 125.578125 168.195312 125.21875 167.742188 124.941406 167.1875 C 124.207031 165.722656 124.53125 165.640625 126.457031 166.828125 L 127.761719 167.609375 L 128.707031 167.136719 C 129.6875 166.648438 129.816406 166.339844 129.035156 166.339844 C 128.660156 166.339844 126.230469 165.152344 126.230469 164.972656 C 126.230469 164.941406 126.34375 164.695312 126.472656 164.453125 C 127.109375 163.230469 126.328125 161.945312 124.941406 161.945312 C 124.664062 161.945312 123.71875 162.335938 122.769531 162.824219 Z M 124.925781 163.410156 C 125.476562 163.964844 125.300781 164.746094 124.53125 165.265625 L 124.109375 165.527344 L 123.621094 164.535156 C 123.34375 163.980469 123.128906 163.523438 123.164062 163.492188 C 123.765625 163.019531 124.484375 162.972656 124.925781 163.410156 Z M 124.925781 163.410156 "/>
<path style=" stroke:none;fill-rule:nonzero;fill:rgb(0%,0%,0%);fill-opacity:1;" d="M 45.828125 163.328125 C 45.828125 163.378906 45.910156 163.574219 45.992188 163.753906 C 46.234375 164.191406 44.148438 168.585938 43.59375 168.796875 C 43.382812 168.878906 43.21875 168.992188 43.21875 169.074219 C 43.21875 169.285156 44.996094 170.085938 45.09375 169.921875 C 45.140625 169.839844 45.109375 169.742188 45.011719 169.675781 C 44.929688 169.628906 44.847656 169.464844 44.847656 169.335938 C 44.847656 169.042969 46.347656 165.820312 46.429688 165.917969 C 46.480469 165.949219 46.820312 167.203125 47.214844 168.699219 C 47.589844 170.183594 47.929688 171.433594 47.964844 171.46875 C 47.996094 171.5 48.222656 171.566406 48.453125 171.628906 C 48.84375 171.726562 48.910156 171.648438 49.824219 169.726562 C 50.34375 168.621094 50.914062 167.414062 51.078125 167.023438 C 51.289062 166.550781 51.484375 166.339844 51.699219 166.339844 C 52.238281 166.339844 52.074219 166.097656 51.289062 165.722656 C 50.359375 165.265625 50.199219 165.265625 50.3125 165.738281 C 50.410156 166.113281 49.171875 169.109375 48.925781 169.109375 C 48.875 169.109375 48.535156 167.953125 48.191406 166.535156 L 47.554688 163.964844 L 46.820312 163.640625 C 46.414062 163.476562 46.023438 163.296875 45.957031 163.28125 C 45.890625 163.25 45.828125 163.265625 45.828125 163.328125 Z M 45.828125 163.328125 "/>
<path style=" stroke:none;fill-rule:nonzero;fill:rgb(0%,0%,0%);fill-opacity:1;" d="M 117.257812 165.414062 C 116.703125 165.753906 116.6875 165.789062 116.800781 166.503906 C 116.980469 167.742188 116.949219 171.957031 116.753906 172.152344 C 116.34375 172.558594 116.800781 172.65625 117.585938 172.332031 C 118.382812 172.003906 118.644531 171.710938 118.15625 171.710938 C 117.976562 171.710938 117.910156 171.515625 117.910156 170.980469 C 117.910156 170.183594 117.910156 170.199219 119.574219 169.597656 C 120.144531 169.382812 120.210938 169.402344 120.601562 169.757812 C 120.910156 170.050781 120.992188 170.261719 120.929688 170.539062 C 120.863281 170.832031 120.894531 170.914062 121.042969 170.847656 C 123.03125 170.050781 123.734375 169.597656 122.96875 169.597656 C 122.789062 169.597656 121.921875 168.914062 120.976562 168.015625 C 120.046875 167.15625 118.972656 166.128906 118.5625 165.753906 L 117.828125 165.054688 Z M 118.644531 167.804688 C 119.085938 168.246094 119.410156 168.636719 119.363281 168.667969 C 119.328125 168.71875 119.070312 168.863281 118.777344 169.011719 C 117.863281 169.464844 117.78125 169.402344 117.714844 168.132812 C 117.683594 167.496094 117.699219 166.992188 117.75 166.992188 C 117.796875 166.992188 118.203125 167.351562 118.644531 167.804688 Z M 118.644531 167.804688 "/>
<path style=" stroke:none;fill-rule:nonzero;fill:rgb(0%,0%,0%);fill-opacity:1;" d="M 113.230469 167.039062 C 112.367188 167.367188 112.105469 167.644531 112.675781 167.644531 C 112.839844 167.644531 113.035156 167.773438 113.101562 167.917969 C 114.144531 170.523438 114.46875 171.792969 114.226562 172.445312 C 113.949219 173.160156 112.414062 173.40625 111.828125 172.800781 C 111.371094 172.347656 110.117188 168.585938 110.394531 168.488281 C 110.492188 168.457031 110.574219 168.328125 110.574219 168.179688 C 110.574219 167.9375 110.574219 167.9375 109.039062 168.457031 C 108.238281 168.71875 107.847656 169.109375 108.371094 169.109375 C 108.664062 169.109375 109.089844 170.003906 109.609375 171.761719 C 109.871094 172.625 110.132812 173.09375 110.574219 173.535156 C 111.144531 174.105469 111.257812 174.152344 112.136719 174.152344 C 113.296875 174.152344 114.242188 173.746094 114.863281 173.03125 C 115.515625 172.265625 115.464844 171.355469 114.648438 169.1875 C 114.144531 167.820312 114.046875 167.382812 114.191406 167.203125 C 114.535156 166.796875 114.09375 166.714844 113.230469 167.039062 Z M 113.230469 167.039062 "/>
<path style=" stroke:none;fill-rule:nonzero;fill:rgb(0%,0%,0%);fill-opacity:1;" d="M 55.613281 167.546875 C 55.613281 167.644531 55.695312 167.820312 55.777344 167.902344 C 55.890625 168.015625 55.710938 168.78125 55.1875 170.34375 C 54.324219 172.949219 54.210938 173.175781 53.898438 173.175781 C 53.769531 173.175781 53.65625 173.273438 53.65625 173.386719 C 53.65625 173.582031 58.007812 175.097656 58.109375 174.949219 C 58.351562 174.578125 58.710938 173.601562 58.628906 173.535156 C 58.582031 173.484375 58.367188 173.550781 58.140625 173.664062 C 57.796875 173.84375 57.585938 173.859375 56.949219 173.679688 C 56.527344 173.566406 56.117188 173.421875 56.035156 173.339844 C 55.953125 173.257812 56.183594 172.363281 56.574219 171.191406 C 57.292969 169.109375 57.652344 168.390625 57.878906 168.539062 C 57.960938 168.585938 58.058594 168.523438 58.109375 168.40625 C 58.15625 168.277344 57.734375 168.066406 56.902344 167.773438 C 56.003906 167.480469 55.613281 167.398438 55.613281 167.546875 Z M 55.613281 167.546875 "/>
<path style=" stroke:none;fill-rule:nonzero;fill:rgb(0%,0%,0%);fill-opacity:1;" d="M 60.277344 169.074219 C 60.226562 169.171875 60.292969 169.320312 60.421875 169.433594 C 60.683594 169.660156 60.683594 169.757812 60.082031 171.875 C 59.867188 172.625 59.691406 173.519531 59.691406 173.84375 C 59.691406 175.164062 61.140625 176.285156 62.851562 176.285156 C 64.597656 176.285156 65.054688 175.765625 65.804688 172.835938 C 66.164062 171.453125 66.34375 170.996094 66.570312 170.929688 C 67.09375 170.800781 66.882812 170.621094 65.886719 170.359375 C 64.941406 170.132812 64.453125 170.230469 65.023438 170.539062 C 65.265625 170.6875 65.25 170.847656 64.777344 172.703125 C 64.125 175.179688 63.878906 175.519531 62.722656 175.40625 C 61.335938 175.277344 61.09375 174.675781 61.566406 172.574219 C 61.972656 170.816406 62.300781 169.921875 62.558594 169.921875 C 63.082031 169.921875 62.722656 169.628906 61.859375 169.367188 C 60.390625 168.929688 60.375 168.929688 60.277344 169.074219 Z M 60.277344 169.074219 "/>
<path style=" stroke:none;fill-rule:nonzero;fill:rgb(0%,0%,0%);fill-opacity:1;" d="M 106.054688 169.285156 C 105.484375 169.464844 105.027344 169.660156 105.027344 169.726562 C 105.027344 169.792969 105.15625 169.921875 105.335938 170.035156 C 105.628906 170.214844 106.136719 171.792969 105.957031 171.988281 C 105.84375 172.085938 103.738281 172.671875 103.460938 172.6875 C 103.167969 172.6875 102.84375 170.769531 103.085938 170.476562 C 103.429688 170.066406 103.101562 170.019531 101.847656 170.3125 C 100.625 170.605469 100.3125 170.847656 100.964844 171.011719 C 101.375 171.125 101.441406 171.257812 102.09375 173.972656 C 102.5 175.632812 102.582031 176.21875 102.449219 176.433594 C 102.351562 176.59375 102.304688 176.757812 102.351562 176.789062 C 102.417969 176.871094 104.539062 176.433594 104.703125 176.300781 C 104.75 176.269531 104.652344 176.140625 104.472656 176.023438 C 104.246094 175.847656 103.476562 173.679688 103.609375 173.566406 C 103.691406 173.484375 106.25 172.867188 106.28125 172.917969 C 106.316406 172.949219 106.480469 173.46875 106.660156 174.089844 C 106.871094 174.902344 106.917969 175.261719 106.789062 175.421875 C 106.691406 175.535156 106.660156 175.667969 106.707031 175.714844 C 106.855469 175.863281 109.105469 175.292969 109.105469 175.113281 C 109.105469 175.03125 108.992188 174.96875 108.859375 174.96875 C 108.515625 174.96875 108.402344 174.625 107.703125 171.957031 C 107.246094 170.199219 107.148438 169.628906 107.292969 169.402344 C 107.652344 168.832031 107.507812 168.832031 106.054688 169.285156 Z M 106.054688 169.285156 "/>
<path style=" stroke:none;fill-rule:nonzero;fill:rgb(0%,0%,0%);fill-opacity:1;" d="M 67.519531 170.945312 C 67.519531 171.078125 67.597656 171.222656 67.714844 171.257812 C 67.859375 171.304688 67.792969 171.941406 67.46875 173.761719 C 66.898438 176.742188 66.898438 176.757812 66.589844 176.757812 C 66.457031 176.757812 66.375 176.855469 66.410156 176.953125 C 66.488281 177.164062 68.824219 177.636719 68.96875 177.472656 C 69.035156 177.425781 68.953125 177.292969 68.789062 177.179688 C 68.496094 176.96875 68.480469 177.082031 69.082031 173.910156 C 69.441406 172.003906 69.621094 171.566406 70.011719 171.550781 C 70.078125 171.550781 70.128906 171.484375 70.128906 171.402344 C 70.128906 171.320312 69.703125 171.160156 69.199219 171.0625 C 68.675781 170.964844 68.089844 170.832031 67.894531 170.785156 C 67.632812 170.71875 67.519531 170.769531 67.519531 170.945312 Z M 67.519531 170.945312 "/>
<path style=" stroke:none;fill-rule:nonzero;fill:rgb(0%,0%,0%);fill-opacity:1;" d="M 96.921875 171.207031 C 95.828125 171.710938 95.371094 173.128906 95.992188 174.070312 C 96.269531 174.496094 97.296875 174.96875 97.949219 174.96875 C 98.160156 174.96875 98.601562 175.082031 98.910156 175.195312 C 99.382812 175.390625 99.484375 175.519531 99.484375 175.925781 C 99.484375 176.511719 98.976562 176.921875 98.226562 176.921875 C 97.65625 176.921875 96.875 176.628906 96.875 176.398438 C 96.875 176.335938 96.757812 176.269531 96.613281 176.269531 C 96.417969 176.269531 96.382812 176.414062 96.417969 176.953125 L 96.464844 177.652344 L 97.558594 177.703125 C 99.042969 177.765625 99.824219 177.523438 100.445312 176.839844 C 100.820312 176.398438 100.949219 176.105469 100.949219 175.617188 C 100.949219 174.285156 100.460938 173.828125 98.667969 173.503906 C 97.558594 173.308594 97.035156 172.996094 97.035156 172.527344 C 97.035156 171.761719 98.632812 171.335938 99.269531 171.921875 C 99.726562 172.332031 99.808594 172.28125 99.808594 171.550781 L 99.808594 170.898438 L 98.714844 170.898438 C 97.980469 170.898438 97.378906 171.011719 96.921875 171.207031 Z M 96.921875 171.207031 "/>
<path style=" stroke:none;fill-rule:nonzero;fill:rgb(0%,0%,0%);fill-opacity:1;" d="M 71.480469 171.875 C 70.761719 172.3125 70.484375 173.210938 70.828125 174.039062 C 71.074219 174.609375 71.546875 175 73.046875 175.8125 C 73.4375 176.023438 73.550781 176.203125 73.550781 176.5625 C 73.550781 176.824219 73.4375 177.148438 73.289062 177.261719 C 72.703125 177.75 71.171875 177.3125 70.992188 176.578125 C 70.84375 176.058594 70.503906 176.238281 70.324219 176.921875 C 70.160156 177.554688 70.175781 177.585938 70.664062 177.847656 C 71.433594 178.238281 73.519531 178.335938 74.171875 177.996094 C 74.808594 177.667969 75.183594 176.96875 75.183594 176.140625 C 75.183594 175.308594 74.871094 174.949219 73.46875 174.203125 C 72.539062 173.699219 72.3125 173.503906 72.28125 173.144531 C 72.199219 172.492188 72.851562 172.101562 73.617188 172.363281 C 73.941406 172.460938 74.335938 172.722656 74.515625 172.949219 C 74.90625 173.453125 75.183594 173.453125 75.183594 172.949219 C 75.183594 172.738281 75.214844 172.445312 75.265625 172.3125 C 75.328125 172.152344 75.117188 172.003906 74.515625 171.824219 C 73.371094 171.453125 72.132812 171.46875 71.480469 171.875 Z M 71.480469 171.875 "/>
<path style=" stroke:none;fill-rule:nonzero;fill:rgb(0%,0%,0%);fill-opacity:1;" d="M 89.09375 172.085938 C 86.988281 172.234375 86.632812 172.363281 87.167969 172.753906 C 87.578125 173.046875 87.953125 178.386719 87.578125 178.386719 C 87.496094 178.386719 87.414062 178.484375 87.414062 178.613281 C 87.414062 178.757812 87.625 178.808594 88.195312 178.777344 C 88.621094 178.742188 89.664062 178.679688 90.527344 178.613281 L 92.109375 178.515625 L 92.191406 177.765625 C 92.242188 177.34375 92.242188 176.96875 92.207031 176.921875 C 92.160156 176.886719 91.964844 177.050781 91.769531 177.292969 C 91.441406 177.703125 91.296875 177.75 90.351562 177.78125 L 89.289062 177.816406 L 89.242188 176.742188 L 89.191406 175.652344 L 89.875 175.585938 C 90.25 175.554688 90.742188 175.617188 90.953125 175.730469 C 91.179688 175.847656 91.378906 175.945312 91.394531 175.945312 C 91.410156 175.945312 91.394531 175.601562 91.359375 175.164062 C 91.277344 174.25 91.101562 173.992188 90.855469 174.460938 C 90.691406 174.738281 90.511719 174.804688 89.859375 174.804688 L 89.046875 174.804688 L 89.046875 172.851562 L 89.828125 172.835938 C 90.871094 172.800781 91.066406 172.851562 91.214844 173.113281 C 91.457031 173.550781 91.65625 173.339844 91.65625 172.605469 C 91.65625 172.117188 91.589844 171.890625 91.457031 171.90625 C 91.34375 171.921875 90.269531 172.003906 89.09375 172.085938 Z M 89.09375 172.085938 "/>
<path style=" stroke:none;fill-rule:nonzero;fill:rgb(0%,0%,0%);fill-opacity:1;" d="M 79.421875 172.410156 C 79.421875 172.542969 79.535156 172.6875 79.667969 172.753906 C 79.878906 172.820312 79.914062 173.308594 79.914062 175.617188 C 79.914062 177.960938 79.878906 178.386719 79.667969 178.386719 C 79.535156 178.386719 79.421875 178.5 79.421875 178.628906 C 79.421875 178.824219 79.734375 178.875 81.21875 178.875 C 82.195312 178.875 83.371094 178.792969 83.828125 178.695312 C 84.789062 178.484375 85.71875 177.765625 86.042969 176.96875 C 86.371094 176.21875 86.320312 174.835938 85.960938 174.070312 C 85.328125 172.6875 84.480469 172.347656 81.59375 172.234375 C 79.714844 172.167969 79.421875 172.199219 79.421875 172.410156 Z M 83.238281 173.242188 C 83.988281 173.550781 84.480469 174.316406 84.59375 175.339844 C 84.773438 177.035156 83.859375 178.109375 82.277344 178.027344 L 81.476562 177.976562 L 81.460938 175.617188 C 81.445312 174.316406 81.460938 173.210938 81.492188 173.128906 C 81.609375 172.933594 82.652344 172.996094 83.238281 173.242188 Z M 83.238281 173.242188 "/>
</g>
</svg>
